<svg width="24" height="24" xmlns="http://www.w3.org/2000/svg">
 <g>
  <title>Layer 1</title>
  <path id="svg_4" d="m5.68751,9.43125a1.21023,1.1625 0 0 1 1.21023,1.1625a1.21023,1.1625 0 0 1 -1.21023,1.1625a1.21023,1.1625 0 0 1 -1.21023,-1.1625a1.21023,1.1625 0 0 1 1.21023,-1.1625m0,-1.74375c2.01705,0 3.73961,1.20513 4.43751,2.90625c-0.6979,1.70113 -2.42046,2.90625 -4.43751,2.90625c-2.01705,0 -3.73961,-1.20513 -4.43751,-2.90625c0.6979,-1.70113 2.42046,-2.90625 4.43751,-2.90625m-3.55807,2.90625c0.66563,1.302 2.04125,2.13125 3.55807,2.13125c1.51682,0 2.89245,-0.82925 3.55807,-2.13125c-0.66563,-1.302 -2.04125,-2.13125 -3.55807,-2.13125c-1.51682,0 -2.89245,0.82925 -3.55807,2.13125z" fill="#0b610b" stroke="null"/>
  <g>
   <g>
    <title>Layer 1</title>
    <path d="m15.93746,3.9375a4,4 0 0 1 4,4a4,4 0 0 1 -4,4a4,4 0 0 1 -4,-4a4,4 0 0 1 4,-4m0,10c4.42,0 8,1.79 8,4l0,2l-16,0l0,-2c0,-2.21 3.58,-4 8,-4z" id="svg_5" fill="#0b610b"/>
   </g>
  </g>
 </g>

</svg>