<svg width="24" height="24" xmlns="http://www.w3.org/2000/svg">
 <g>
  <title>Layer 1</title>
  <path fill="#0b610b" id="svg_1" d="m15.5625,3.8125a4,4 0 0 1 4,4a4,4 0 0 1 -4,4a4,4 0 0 1 -4,-4a4,4 0 0 1 4,-4m0,10c4.42,0 8,1.79 8,4l0,2l-16,0l0,-2c0,-2.21 3.58,-4 8,-4z"/>
  <g transform="rotate(0.095743 5.91662 10.6497)" id="svg_2" stroke="null">
   <path fill="#0b610b" d="m5.91662,7.27681l-4.53234,2.24858l4.53234,2.24858l3.70828,-1.84009l0,2.58962l0.82406,0l0,-2.99811m-7.41655,1.56651l0,1.49906l2.88421,1.43159l2.88421,-1.43159l0,-1.49906l-2.88421,1.43159l-2.88421,-1.43159z" id="svg_3" stroke="null"/>
  </g>
 </g>

</svg>