<svg width="24" height="24" xmlns="http://www.w3.org/2000/svg">
 <g>
  <title>Layer 1</title>
  <path fill="#0b610b" id="svg_1" d="m15.5625,3.8125a4,4 0 0 1 4,4a4,4 0 0 1 -4,4a4,4 0 0 1 -4,-4a4,4 0 0 1 4,-4m0,10c4.42,0 8,1.79 8,4l0,2l-16,0l0,-2c0,-2.21 3.58,-4 8,-4z"/>
  <g transform="rotate(0.095743 5.10539 10.9626)" stroke="null" id="svg_2">
   <path stroke="null" fill="#0b610b" d="m5.10539,6.90275l-5.09723,2.70656l5.09723,2.70656l4.17047,-2.21487l0,3.11706l0.92677,0l0,-3.60875m-8.34092,1.88557l0,1.80438l3.24369,1.72317l3.24369,-1.72317l0,-1.80438l-3.24369,1.72317l-3.24369,-1.72317z" id="svg_3"/>
  </g>
 </g>

</svg>