<svg width="24" height="24" xmlns="http://www.w3.org/2000/svg">
 <g>
  <title>Layer 1</title>
  <path fill="#8f7e2c" id="svg_1" d="m12,4a4,4 0 0 1 4,4a4,4 0 0 1 -4,4a4,4 0 0 1 -4,-4a4,4 0 0 1 4,-4m0,10c4.42,0 8,1.79 8,4l0,2l-16,0l0,-2c0,-2.21 3.58,-4 8,-4z"/>
  <g transform="rotate(36 14.6979 4.2747)" stroke="null">
   <path stroke="null" fill="#8c750f" d="m14.69789,0.27563l-5.25004,2.66605l5.25004,2.66605l4.29549,-2.18172l0,3.0704l0.95455,0l0,-3.55473m-8.59097,1.85735l0,1.77737l3.34093,1.69738l3.34093,-1.69738l0,-1.77737l-3.34093,1.69738l-3.34093,-1.69738z"/>
  </g>
 </g>

</svg>