<svg width="24" height="24" xmlns="http://www.w3.org/2000/svg">
 <g>
  <title>Layer 1</title>
  <path fill="#0b610b" id="svg_1" d="m15.5625,3.8125a4,4 0 0 1 4,4a4,4 0 0 1 -4,4a4,4 0 0 1 -4,-4a4,4 0 0 1 4,-4m0,10c4.42,0 8,1.79 8,4l0,2l-16,0l0,-2c0,-2.21 3.58,-4 8,-4z"/>
  <g transform="rotate(0.095743 5.73038 11.4001)" stroke="null" id="svg_2">
   <path stroke="null" fill="#0b610b" d="m5.73038,6.9038l-5.72295,2.99752l5.72295,2.99752l4.68242,-2.45298l0,3.45215l1.04053,0l0,-3.9967m-9.36482,2.08827l0,1.99836l3.64187,1.90842l3.64187,-1.90842l0,-1.99836l-3.64187,1.90842l-3.64187,-1.90842z" id="svg_3"/>
  </g>
 </g>

</svg>