<svg width="24" height="24" xmlns="http://www.w3.org/2000/svg">
 <g>
  <title>Layer 1</title>
  <path d="m11,10l0,2l-2,0l0,2l-2,0l0,-2l-1.2,0c-0.4,1.2 -1.5,2 -2.8,2c-1.7,0 -3,-1.3 -3,-3s1.3,-3 3,-3c1.3,0 2.4,0.8 2.8,2l5.2,0m-8,0c-0.6,0 -1,0.4 -1,1s0.4,1 1,1s1,-0.4 1,-1s-0.4,-1 -1,-1m13,4c2.7,0 8,1.3 8,4l0,2l-16,0l0,-2c0,-2.7 5.3,-4 8,-4m0,-2c-2.2,0 -4,-1.8 -4,-4s1.8,-4 4,-4s4,1.8 4,4s-1.8,4 -4,4z" id="svg_1" fill="#8f7e2c"/>
  <rect id="svg_3" height="6.37499" width="11.43749" y="7.78644" x="-0.01739" stroke="null" fill="#ffffff"/>
  <g stroke="null">
   <path stroke="null" d="m5.17497,5.17389l-4.75004,2.47855l4.75004,2.47855l3.8864,-2.02828l0,2.85446l0.86364,0l0,-3.30473m-7.77279,1.72672l0,1.65237l3.02275,1.57801l3.02275,-1.57801l0,-1.65237l-3.02275,1.57801l-3.02275,-1.57801z" fill="#8f7e2c"/>
  </g>
 </g>

</svg>