<svg width="24" height="24" xmlns="http://www.w3.org/2000/svg">
 <g>
  <title>Layer 1</title>
  <path d="m11,10l0,2l-2,0l0,2l-2,0l0,-2l-1.2,0c-0.4,1.2 -1.5,2 -2.8,2c-1.7,0 -3,-1.3 -3,-3s1.3,-3 3,-3c1.3,0 2.4,0.8 2.8,2l5.2,0m-8,0c-0.6,0 -1,0.4 -1,1s0.4,1 1,1s1,-0.4 1,-1s-0.4,-1 -1,-1m13,4c2.7,0 8,1.3 8,4l0,2l-16,0l0,-2c0,-2.7 5.3,-4 8,-4m0,-2c-2.2,0 -4,-1.8 -4,-4s1.8,-4 4,-4s4,1.8 4,4s-1.8,4 -4,4z" id="svg_1" fill="#0b610b"/>
  <rect id="svg_3" height="6.37499" width="11.43749" y="7.78644" x="-0.01739" stroke="null" fill="#ffffff"/>
  <g stroke="null">
   <path stroke="null" fill="#0b610b" d="m7.92362,9.19531l0,-1.80469a0.53472,0.51563 0 0 0 -0.53472,-0.51563l-6.41667,0a0.53472,0.51563 0 0 0 -0.53472,0.51563l0,5.15625a0.53472,0.51563 0 0 0 0.53472,0.51563l6.41667,0a0.53472,0.51563 0 0 0 0.53472,-0.51563l0,-1.80469l2.13889,2.0625l0,-5.67188l-2.13889,2.0625z"/>
  </g>
 </g>

</svg>