<svg width="24" height="24" xmlns="http://www.w3.org/2000/svg">
 <g>
  <title>Layer 1</title>
  <path d="m15.74994,4a4,4 0 0 1 4,4a4,4 0 0 1 -4,4a4,4 0 0 1 -4,-4a4,4 0 0 1 4,-4m0,10c4.42,0 8,1.79 8,4l0,2l-16,0l0,-2c0,-2.21 3.58,-4 8,-4z" id="svg_1" fill="#0b610b"/>
  <g stroke="null">
   <path stroke="null" fill="#0b610b" d="m7.22237,9.53126l0,-1.38545a0.44445,0.39584 0 0 0 -0.44445,-0.39584l-5.33344,0a0.44445,0.39584 0 0 0 -0.44445,0.39584l0,3.95843a0.44445,0.39584 0 0 0 0.44445,0.39584l5.33344,0a0.44445,0.39584 0 0 0 0.44445,-0.39584l0,-1.38545l1.77781,1.58337l0,-4.35427l-1.77781,1.58337z"/>
  </g>
 </g>

</svg>