<svg width="24" height="24" xmlns="http://www.w3.org/2000/svg">
 <g>
  <title>Layer 1</title>
  <path fill="#0b610b" id="svg_1" d="m15.74994,4a4,4 0 0 1 4,4a4,4 0 0 1 -4,4a4,4 0 0 1 -4,-4a4,4 0 0 1 4,-4m0,10c4.42,0 8,1.79 8,4l0,2l-16,0l0,-2c0,-2.21 3.58,-4 8,-4z"/>
  <g stroke="null" id="svg_2">
   <path stroke="null" id="svg_3" d="m8.12515,11.4297l0,-1.54951a0.5625,0.44271 0 0 0 -0.5625,-0.44271l-6.75011,0a0.5625,0.44271 0 0 0 -0.5625,0.44271l0,4.42718a0.5625,0.44271 0 0 0 0.5625,0.44271l6.75011,0a0.5625,0.44271 0 0 0 0.5625,-0.44271l0,-1.54951l2.25003,1.77087l0,-4.8699l-2.25003,1.77087z" fill="#0b610b"/>
  </g>
 </g>

</svg>