<svg width="24" height="24" xmlns="http://www.w3.org/2000/svg">
 <g>
  <title>Layer 1</title>
  <path fill="#0b610b" id="svg_1" d="m15.74994,4a4,4 0 0 1 4,4a4,4 0 0 1 -4,4a4,4 0 0 1 -4,-4a4,4 0 0 1 4,-4m0,10c4.42,0 8,1.79 8,4l0,2l-16,0l0,-2c0,-2.21 3.58,-4 8,-4z"/>
  <g stroke="null" id="svg_2">
   <path stroke="null" id="svg_3" d="m8.22237,10.89845l0,-1.76826a0.56945,0.50521 0 0 0 -0.56945,-0.50521l-6.83344,0a0.56945,0.50521 0 0 0 -0.56945,0.50521l0,5.05218a0.56945,0.50521 0 0 0 0.56945,0.50521l6.83344,0a0.56945,0.50521 0 0 0 0.56945,-0.50521l0,-1.76826l2.27781,2.02087l0,-5.5574l-2.27781,2.02087z" fill="#0b610b"/>
  </g>
 </g>

</svg>