<svg width="24" height="24" xmlns="http://www.w3.org/2000/svg">
 <g>
  <title>Layer 1</title>
  <path d="m12,4a4,4 0 0 1 4,4a4,4 0 0 1 -4,4a4,4 0 0 1 -4,-4a4,4 0 0 1 4,-4m0,10c4.42,0 8,1.79 8,4l0,2l-16,0l0,-2c0,-2.21 3.58,-4 8,-4z" id="svg_1" fill="#8f7e2c"/>
  <g id="svg_2" stroke="null">
   <path id="svg_3" d="m19.79159,17.35402l0,4.41672l-6.18061,0l0,-4.41672l6.18061,0m0.61806,-1.10418l-7.41674,0a0.61806,0.55209 0 0 0 -0.61806,0.55209l0,5.5209a0.61806,0.55209 0 0 0 0.61806,0.55209l7.41674,0a0.61806,0.55209 0 0 0 0.61806,-0.55209l0,-1.93232l2.47225,2.20836l0,-6.07299l-2.47225,2.20836l0,-1.93232a0.61806,0.55209 0 0 0 -0.61806,-0.55209l0,0.00001z" fill="#8e7401" stroke="null"/>
  </g>
 </g>

</svg>