<svg width="24" height="24" xmlns="http://www.w3.org/2000/svg">
 <g>
  <title>Layer 1</title>
  <path d="m6,8c0,-2.21 1.79,-4 4,-4s4,1.79 4,4s-1.79,4 -4,4s-4,-1.79 -4,-4m3.14,11.75l-0.29,-0.75l0.29,-0.75c0.7,-1.75 1.94,-3.11 3.47,-4.03c-0.82,-0.14 -1.69,-0.22 -2.61,-0.22c-4.42,0 -8,1.79 -8,4l0,2l7.27,0c-0.04,-0.09 -0.09,-0.17 -0.13,-0.25m7.86,-1.75c-0.56,0 -1,0.44 -1,1s0.44,1 1,1s1,-0.44 1,-1s-0.44,-1 -1,-1m6,1c-0.94,2.34 -3.27,4 -6,4s-5.06,-1.66 -6,-4c0.94,-2.34 3.27,-4 6,-4s5.06,1.66 6,4m-3.5,0c0,-1.38 -1.12,-2.5 -2.5,-2.5s-2.5,1.12 -2.5,2.5s1.12,2.5 2.5,2.5s2.5,-1.12 2.5,-2.5z" id="svg_1" fill="#8f7e2c"/>
 </g>

</svg>