<svg width="24" height="24" xmlns="http://www.w3.org/2000/svg">
 <g>
  <title>Layer 1</title>
  <path d="m11,10l0,2l-2,0l0,2l-2,0l0,-2l-1.2,0c-0.4,1.2 -1.5,2 -2.8,2c-1.7,0 -3,-1.3 -3,-3s1.3,-3 3,-3c1.3,0 2.4,0.8 2.8,2l5.2,0m-8,0c-0.6,0 -1,0.4 -1,1s0.4,1 1,1s1,-0.4 1,-1s-0.4,-1 -1,-1m13,4c2.7,0 8,1.3 8,4l0,2l-16,0l0,-2c0,-2.7 5.3,-4 8,-4m0,-2c-2.2,0 -4,-1.8 -4,-4s1.8,-4 4,-4s4,1.8 4,4s-1.8,4 -4,4z" id="svg_1" fill="#0b610b"/>
  <rect stroke="null" id="svg_2" height="6.99999" width="11.37499" y="7.53644" x="-0.07989" fill="#ffffff"/>
  <g stroke="null">
   <path stroke="null" fill="#0b610b" d="m5.68751,9.43125a1.21023,1.1625 0 0 1 1.21023,1.1625a1.21023,1.1625 0 0 1 -1.21023,1.1625a1.21023,1.1625 0 0 1 -1.21023,-1.1625a1.21023,1.1625 0 0 1 1.21023,-1.1625m0,-1.74375c2.01705,0 3.73961,1.20513 4.43751,2.90625c-0.6979,1.70113 -2.42046,2.90625 -4.43751,2.90625c-2.01705,0 -3.73961,-1.20513 -4.43751,-2.90625c0.6979,-1.70113 2.42046,-2.90625 4.43751,-2.90625m-3.55807,2.90625c0.66563,1.302 2.04125,2.13125 3.55807,2.13125c1.51682,0 2.89245,-0.82925 3.55807,-2.13125c-0.66563,-1.302 -2.04125,-2.13125 -3.55807,-2.13125c-1.51682,0 -2.89245,0.82925 -3.55807,2.13125z"/>
  </g>
 </g>

</svg>