<svg width="24" height="24" xmlns="http://www.w3.org/2000/svg">

 <g>
  <title>Layer 1</title>
  <path fill="#0b610b" id="svg_1" d="m12,16c0.8,0 1.57,-0.07 2.31,-0.18l2.91,-2.91c-1.33,0.68 -3.22,1.09 -5.22,1.09c-2.42,0 -4.7,-0.6 -6,-1.55l0,-2.81c1.47,0.83 3.61,1.36 6,1.36s4.53,-0.53 6,-1.36l0,2.49l1.39,-1.39c0.18,-0.18 0.39,-0.32 0.61,-0.44l0,-3.3c0,-2.21 -3.58,-4 -8,-4s-8,1.79 -8,4l0,10c0,2.04 3.06,3.72 7,3.97l0,-1.84l0.17,-0.17c-3.33,-0.2 -5.17,-1.5 -5.17,-1.96l0,-2.23c1.61,0.78 3.72,1.23 6,1.23m0,-11c3.87,0 6,1.5 6,2s-2.13,2 -6,2s-6,-1.5 -6,-2s2.13,-2 6,-2m7.13,8.83l2.04,2.04l-6.13,6.13l-2.04,0l0,-2.04l6.13,-6.13m3.72,0.36l-0.98,0.98l-2.04,-2.04l0.98,-0.98c0.19,-0.2 0.52,-0.2 0.72,0l1.32,1.32c0.2,0.2 0.2,0.53 0,0.72z"/>
 </g>
</svg>